<svg width="478" height="85" viewBox="0 0 478 85" fill="none" xmlns="http://www.w3.org/2000/svg">
<path d="M82.2928 0H65.9366L57.7555 14.1686L49.5804 28.3314H49.5745L41.3934 14.1686L33.2183 0H16.8562H0.5L8.68106 14.1686L16.8562 28.3314L25.0372 42.5L33.2183 56.6686L41.3994 70.8314L49.5804 85L57.7555 70.8314L65.9366 56.6686H65.9307L74.1117 42.5L82.2928 28.3314L90.4738 14.1686L98.6549 0H82.2928Z" fill="#2776FB"/>
<path d="M419.131 74.6326L402.012 47.7124H412.417L429.939 74.6326H419.131ZM408.054 68.0536C403.489 68.0536 399.461 67.0242 395.97 64.9655C392.479 62.9068 389.749 60.0648 387.78 56.4396C385.81 52.7697 384.826 48.5403 384.826 43.7515C384.826 38.9627 385.81 34.7557 387.78 31.1306C389.749 27.4606 392.479 24.5963 395.97 22.5376C399.461 20.4788 403.489 19.4495 408.054 19.4495C412.664 19.4495 416.714 20.4788 420.205 22.5376C423.696 24.5963 426.403 27.4606 428.328 31.1306C430.297 34.7557 431.282 38.9627 431.282 43.7515C431.282 48.5403 430.297 52.7697 428.328 56.4396C426.403 60.0648 423.696 62.9068 420.205 64.9655C416.714 67.0242 412.664 68.0536 408.054 68.0536ZM408.054 59.9305C410.918 59.9305 413.38 59.2816 415.438 57.9837C417.542 56.641 419.175 54.7613 420.339 52.3445C421.503 49.9278 422.085 47.0634 422.085 43.7515C422.085 40.3949 421.503 37.5306 420.339 35.1585C419.175 32.7418 417.542 30.8844 415.438 29.5865C413.38 28.2886 410.918 27.6397 408.054 27.6397C405.234 27.6397 402.773 28.2886 400.669 29.5865C398.566 30.8844 396.932 32.7418 395.769 35.1585C394.605 37.5306 394.023 40.3949 394.023 43.7515C394.023 47.0634 394.605 49.9278 395.769 52.3445C396.932 54.7613 398.566 56.641 400.669 57.9837C402.773 59.2816 405.234 59.9305 408.054 59.9305Z" fill="#0F1554"/>
<path d="M433.026 67.8793L450.212 20.8863H460.483L477.602 67.8793H468.002L455.314 31.2247L442.559 67.8793H433.026ZM440.612 57.2051L443.029 50.1562H466.928L469.278 57.2051H440.612Z" fill="#0F1554"/>
<path d="M125.934 67.8623L108.748 20.374H117.945L131.238 59.0097L144.597 20.374H153.66L136.474 67.8623H125.934Z" fill="#0F1554"/>
<path d="M162.969 30.2425C161.403 30.2425 160.105 29.7726 159.076 28.8328C158.091 27.8929 157.599 26.7069 157.599 25.2747C157.599 23.8426 158.091 22.6789 159.076 21.7838C160.105 20.844 161.403 20.374 162.969 20.374C164.536 20.374 165.811 20.844 166.796 21.7838C167.825 22.6789 168.34 23.8426 168.34 25.2747C168.34 26.7069 167.825 27.8929 166.796 28.8328C165.811 29.7726 164.536 30.2425 162.969 30.2425ZM158.673 67.8623V33.7184H167.266V67.8623H158.673Z" fill="#0F1554"/>
<path d="M174.11 67.8623V33.7184H181.763L182.569 39.9618C183.777 37.8135 185.411 36.1128 187.47 34.8597C189.573 33.5618 192.035 32.9128 194.854 32.9128V41.9757H192.438C190.558 41.9757 188.88 42.2666 187.403 42.8485C185.926 43.4303 184.762 44.4373 183.912 45.8694C183.106 47.3016 182.703 49.2932 182.703 51.8443V67.8623H174.11Z" fill="#0F1554"/>
<path d="M216.272 67.8778C212.781 67.8778 209.984 67.0275 207.88 65.3268C205.777 63.6261 204.725 60.6051 204.725 56.2638V40.9016H199.019V33.7184H204.725L205.732 24.7897H213.318V33.7184H222.314V40.9016H213.318V55.4694C213.318 57.0806 213.654 58.1995 214.325 58.8261C215.041 59.4079 216.25 59.6988 217.95 59.6988H222.113V67.8778H216.272Z" fill="#0F1554"/>
<path d="M239.584 67.8373C235.422 67.8373 232.2 66.5394 229.917 63.9436C227.679 61.3478 226.56 57.5436 226.56 52.5311V33.7339H235.086V51.7255C235.086 54.5898 235.668 56.7828 236.832 58.3045C237.995 59.8262 239.83 60.587 242.337 60.587C244.709 60.587 246.655 59.7367 248.177 58.036C249.744 56.3353 250.527 53.9632 250.527 50.9199V33.7339H259.12V67.8778H251.534L250.862 61.3926C249.833 63.3618 248.334 64.9283 246.365 66.0919C244.44 67.2555 242.18 67.8373 239.584 67.8373Z" fill="#0F1554"/>
<path d="M280.377 67.8373C277.155 67.8373 274.246 67.0989 271.65 65.622C269.099 64.145 267.063 62.1087 265.541 59.5129C264.064 56.8723 263.326 53.829 263.326 50.3828C263.326 46.9367 264.087 43.9157 265.608 41.3199C267.13 38.6793 269.166 36.6206 271.717 35.1437C274.313 33.6667 277.222 32.9283 280.445 32.9283C283.622 32.9283 286.487 33.6667 289.038 35.1437C291.633 36.6206 293.67 38.6793 295.147 41.3199C296.668 43.9157 297.429 46.9367 297.429 50.3828C297.429 53.829 296.668 56.8723 295.147 59.5129C293.67 62.1087 291.633 64.145 289.038 65.622C286.442 67.0989 283.555 67.8373 280.377 67.8373ZM280.377 60.3856C282.615 60.3856 284.562 59.5576 286.218 57.9017C287.874 56.201 288.702 53.6947 288.702 50.3828C288.702 47.0709 287.874 44.587 286.218 42.9311C284.562 41.2304 282.638 40.38 280.445 40.38C278.162 40.38 276.193 41.2304 274.537 42.9311C272.926 44.587 272.12 47.0709 272.12 50.3828C272.12 53.6947 272.926 56.201 274.537 57.9017C276.193 59.5576 278.14 60.3856 280.377 60.3856Z" fill="#0F1554"/>
<path d="M317.458 67.8373C314.504 67.8373 311.908 67.3674 309.671 66.4276C307.433 65.4429 305.643 64.1003 304.3 62.3996C302.957 60.6989 302.152 58.7297 301.883 56.4919H310.543C310.812 57.7898 311.528 58.9087 312.692 59.8485C313.9 60.7436 315.444 61.1912 317.324 61.1912C319.203 61.1912 320.568 60.8108 321.419 60.0499C322.314 59.2891 322.761 58.4164 322.761 57.4318C322.761 55.9996 322.135 55.0374 320.882 54.545C319.629 54.008 317.883 53.4933 315.645 53.001C314.213 52.6877 312.759 52.3073 311.282 51.8597C309.805 51.4122 308.44 50.8527 307.187 50.1814C305.978 49.4653 304.994 48.5702 304.233 47.4961C303.472 46.3772 303.092 45.0122 303.092 43.401C303.092 40.4472 304.255 37.9632 306.582 35.9493C308.954 33.9353 312.266 32.9283 316.518 32.9283C320.457 32.9283 323.589 33.8458 325.917 35.6807C328.289 37.5157 329.699 40.0444 330.146 43.2667H322.023C321.531 40.8052 319.673 39.5744 316.451 39.5744C314.84 39.5744 313.587 39.8877 312.692 40.5143C311.841 41.1409 311.416 41.9241 311.416 42.8639C311.416 43.8486 312.065 44.6318 313.363 45.2136C314.661 45.7954 316.384 46.3325 318.532 46.8248C320.859 47.3618 322.985 47.966 324.91 48.6374C326.879 49.2639 328.445 50.2262 329.609 51.5241C330.773 52.7772 331.354 54.5898 331.354 56.9618C331.399 59.0206 330.862 60.8779 329.743 62.5339C328.624 64.1898 327.013 65.4877 324.91 66.4276C322.806 67.3674 320.322 67.8373 317.458 67.8373Z" fill="#0F1554"/>
<path d="M352.82 67.8373C349.597 67.8373 346.688 67.0989 344.092 65.622C341.541 64.145 339.505 62.1087 337.983 59.5129C336.506 56.8723 335.768 53.829 335.768 50.3828C335.768 46.9367 336.529 43.9157 338.05 41.3199C339.572 38.6793 341.609 36.6206 344.16 35.1437C346.755 33.6667 349.664 32.9283 352.887 32.9283C356.064 32.9283 358.929 33.6667 361.48 35.1437C364.076 36.6206 366.112 38.6793 367.589 41.3199C369.111 43.9157 369.871 46.9367 369.871 50.3828C369.871 53.829 369.111 56.8723 367.589 59.5129C366.112 62.1087 364.076 64.145 361.48 65.622C358.884 67.0989 355.997 67.8373 352.82 67.8373ZM352.82 60.3856C355.057 60.3856 357.004 59.5576 358.66 57.9017C360.316 56.201 361.144 53.6947 361.144 50.3828C361.144 47.0709 360.316 44.587 358.66 42.9311C357.004 41.2304 355.08 40.38 352.887 40.38C350.604 40.38 348.635 41.2304 346.979 42.9311C345.368 44.587 344.562 47.0709 344.562 50.3828C344.562 53.6947 345.368 56.201 346.979 57.9017C348.635 59.5576 350.582 60.3856 352.82 60.3856Z" fill="#0F1554"/>
</svg>
